<?xml version="1.0" encoding="utf-8"?>
<!-- Generator: Adobe Illustrator 18.0.0, SVG Export Plug-In . SVG Version: 6.00 Build 0)  -->
<!DOCTYPE svg PUBLIC "-//W3C//DTD SVG 1.1//EN" "http://www.w3.org/Graphics/SVG/1.1/DTD/svg11.dtd">
<svg version="1.1" id="Layer_1" xmlns="http://www.w3.org/2000/svg" xmlns:xlink="http://www.w3.org/1999/xlink" x="0px" y="0px"
	 viewBox="0 0 1280 90" enable-background="new 0 0 1280 90" xml:space="preserve">
<g>
	<g>
		<g>
			<rect x="0" y="30" width="1280" height="60"/>
			<g>
				<polygon points="779.9,0 500.1,0 454.7,30 500.1,30 779.9,30 825.3,30 				"/>
				<polygon points="500.1,0 454.7,30 500.1,30 				"/>
			</g>
		</g>
		<g>
			<polygon fill="#F49C0F" points="512.8,0 500.7,0 477.4,15.4 455.3,30 467.4,30 			"/>
			<rect x="0" y="27" fill="#F49C0F" width="467.4" height="3"/>
		</g>
		<g>
			<polygon fill="#F49C0F" points="823.3,30 811.2,30 787.8,14.6 765.8,0 777.8,0 			"/>
			<rect x="812.6" y="27" fill="#F49C0F" width="467.4" height="3"/>
		</g>
		<rect x="501.6" y="0" fill="#F49C0F" width="276.9" height="3"/>
	</g>
	<g>
		<circle opacity="0.2" fill="#FFFFFF" cx="640" cy="44.5" r="21"/>
		<g>
			<circle fill="#F49C0F" cx="640" cy="45.9" r="8.5"/>
			<g>
				<path fill="#FFFFFF" d="M623.2,50.3c-1.8,0-2-0.3-2.1-0.5l0-0.1c0-0.6,2.4-1.6,7.2-2.8l0.1,0.3c-5.5,1.4-7,2.3-7,2.5
					c0,0,0.1,0.2,1.8,0.2c2.2,0,6.1-0.4,10.7-1.1l0,0.3C629.3,49.8,625.4,50.3,623.2,50.3z M639.1,48.3L639,48
					c0.4-0.1,0.8-0.2,1.3-0.2c11.8-2.2,18.3-4.3,18.3-5l0.3-0.1l0,0.1c0,1.3-11.1,3.9-18.6,5.3C639.9,48.1,639.5,48.2,639.1,48.3z
					 M633.4,46l-0.1-0.3c2-0.4,4.1-0.9,6.3-1.3c5.3-1,10.4-1.7,14-2l0,0.3c-3.6,0.3-8.7,1.1-14,2C637.5,45.1,635.4,45.6,633.4,46z"
					/>
			</g>
			<g>
				<defs>
					<circle id="SVGID_1_" cx="640" cy="45.9" r="8.5"/>
				</defs>
				<clipPath id="SVGID_2_">
					<use xlink:href="#SVGID_1_"  overflow="visible"/>
				</clipPath>
				<path clip-path="url(#SVGID_2_)" fill="#F49C0F" d="M630.8,47.9c0.2,0,19.2-3.6,19.2-3.6l-2.4-11.6l-18.7,3.3L630.8,47.9z"/>
			</g>
		</g>
	</g>
	<g>
		<g>
			<g opacity="0.39">
				<rect x="99.3" y="54.7" fill="#FFFFFF" width="0.7" height="17.5"/>
				<rect x="103.3" y="60.4" fill="#FFFFFF" width="0.7" height="11.8"/>
				<rect x="107.3" y="63.4" fill="#FFFFFF" width="0.7" height="8.8"/>
				<rect x="111.4" y="57.2" fill="#FFFFFF" width="0.7" height="15"/>
				<rect x="115.4" y="54.7" fill="#FFFFFF" width="0.7" height="17.5"/>
				<rect x="119.4" y="45.9" fill="#FFFFFF" width="0.7" height="26.3"/>
				<rect x="123.4" y="66.8" fill="#FFFFFF" width="0.7" height="5.4"/>
				<rect x="127.5" y="60.4" fill="#FFFFFF" width="0.7" height="11.8"/>
				<rect x="131.5" y="63.4" fill="#FFFFFF" width="0.7" height="8.8"/>
				<rect x="135.5" y="60.4" fill="#FFFFFF" width="0.7" height="11.8"/>
				<rect x="139.5" y="57.2" fill="#FFFFFF" width="0.7" height="15"/>
				<rect x="143.5" y="54.7" fill="#FFFFFF" width="0.7" height="17.5"/>
				<rect x="147.6" y="62.1" fill="#FFFFFF" width="0.7" height="10.1"/>
				<rect x="151.6" y="60.4" fill="#FFFFFF" width="0.7" height="11.8"/>
				<rect x="155.6" y="63.4" fill="#FFFFFF" width="0.7" height="8.8"/>
				<rect x="159.6" y="60.4" fill="#FFFFFF" width="0.7" height="11.8"/>
				<rect x="163.6" y="66.8" fill="#FFFFFF" width="0.7" height="5.4"/>
				<rect x="167.7" y="54.7" fill="#FFFFFF" width="0.7" height="17.5"/>
				<rect x="171.7" y="60.4" fill="#FFFFFF" width="0.7" height="11.8"/>
				<rect x="175.7" y="63.4" fill="#FFFFFF" width="0.7" height="8.8"/>
				<rect x="179.7" y="54.7" fill="#FFFFFF" width="0.7" height="17.5"/>
				<rect x="183.7" y="45.9" fill="#FFFFFF" width="0.7" height="26.3"/>
				<rect x="187.8" y="54.7" fill="#FFFFFF" width="0.7" height="17.5"/>
				<rect x="191.8" y="67.5" fill="#FFFFFF" width="0.7" height="4.7"/>
				<rect x="195.8" y="60.4" fill="#FFFFFF" width="0.7" height="11.8"/>
				<rect x="199.8" y="54.7" fill="#FFFFFF" width="0.7" height="17.5"/>
				<rect x="203.8" y="60.4" fill="#FFFFFF" width="0.7" height="11.8"/>
				<rect x="207.9" y="62.8" fill="#FFFFFF" width="0.7" height="9.4"/>
				<rect x="211.9" y="66.8" fill="#FFFFFF" width="0.7" height="5.4"/>
				<rect x="215.9" y="62.8" fill="#FFFFFF" width="0.7" height="9.4"/>
				<rect x="219.9" y="54.7" fill="#FFFFFF" width="0.7" height="17.5"/>
			</g>
			<g opacity="0.6">
				<g>
					<path fill="#FFFFFF" d="M26.2,70.9l0.6-0.1c0.1,0.7,0.4,1,0.9,1c0.2,0,0.4-0.1,0.6-0.2c0.2-0.1,0.3-0.4,0.5-0.8
						s0.2-0.8,0.2-1.3v-0.2c-0.1,0.3-0.3,0.5-0.5,0.6c-0.2,0.2-0.5,0.2-0.7,0.2c-0.4,0-0.8-0.2-1.1-0.6c-0.3-0.4-0.5-0.9-0.5-1.5
						c0-0.7,0.2-1.2,0.5-1.6c0.3-0.4,0.7-0.6,1.2-0.6c0.3,0,0.6,0.1,0.9,0.3s0.5,0.5,0.7,1s0.2,1,0.2,1.8c0,0.9-0.1,1.6-0.3,2.1
						s-0.4,0.8-0.7,1.1c-0.3,0.2-0.6,0.3-1,0.3c-0.4,0-0.7-0.1-1-0.4C26.4,71.8,26.2,71.4,26.2,70.9z M28.8,68.1
						c0-0.5-0.1-0.8-0.3-1.1c-0.2-0.3-0.4-0.4-0.7-0.4c-0.3,0-0.5,0.1-0.7,0.4c-0.2,0.3-0.3,0.7-0.3,1.1c0,0.4,0.1,0.8,0.3,1
						c0.2,0.3,0.5,0.4,0.7,0.4c0.3,0,0.5-0.1,0.7-0.4C28.7,68.9,28.8,68.5,28.8,68.1z"/>
					<path fill="#FFFFFF" d="M30.6,70.7l0.6-0.1c0.1,0.8,0.5,1.3,1,1.3c0.3,0,0.6-0.1,0.8-0.4c0.2-0.3,0.3-0.6,0.3-1
						c0-0.4-0.1-0.7-0.3-0.9s-0.4-0.3-0.7-0.3c-0.1,0-0.3,0-0.5,0.1l0.1-0.7l0.1,0c0.3,0,0.6-0.1,0.8-0.3c0.2-0.2,0.3-0.5,0.3-0.8
						c0-0.3-0.1-0.5-0.3-0.7c-0.2-0.2-0.4-0.3-0.6-0.3c-0.3,0-0.5,0.1-0.6,0.3c-0.2,0.2-0.3,0.5-0.3,0.9l-0.6-0.1
						c0.1-0.6,0.3-1,0.6-1.2s0.6-0.4,1-0.4c0.4,0,0.8,0.2,1.1,0.5s0.4,0.7,0.4,1.2c0,0.3-0.1,0.6-0.2,0.8c-0.1,0.2-0.3,0.4-0.5,0.5
						c0.2,0.1,0.4,0.2,0.5,0.3c0.1,0.1,0.2,0.3,0.3,0.5c0.1,0.2,0.1,0.5,0.1,0.8c0,0.6-0.2,1.1-0.5,1.5c-0.3,0.4-0.8,0.6-1.3,0.6
						c-0.5,0-0.8-0.2-1.1-0.5S30.7,71.3,30.6,70.7z"/>
					<path fill="#FFFFFF" d="M37.6,72.4H37v-5c-0.1,0.2-0.4,0.4-0.6,0.5c-0.3,0.2-0.5,0.3-0.7,0.4v-0.8c0.4-0.2,0.7-0.5,0.9-0.8
						c0.3-0.3,0.5-0.6,0.6-0.9h0.4V72.4z"/>
					<path fill="#FFFFFF" d="M43.2,71.6v0.8h-3.5c0-0.3,0.1-0.7,0.3-1c0.2-0.4,0.6-0.8,1.1-1.3c0.6-0.6,1-1.1,1.2-1.4
						s0.3-0.6,0.3-0.9c0-0.3-0.1-0.6-0.3-0.8c-0.2-0.2-0.4-0.3-0.7-0.3c-0.3,0-0.5,0.1-0.7,0.3s-0.3,0.5-0.3,1l-0.7-0.1
						c0-0.6,0.2-1.1,0.5-1.4c0.3-0.3,0.7-0.5,1.2-0.5c0.5,0,0.9,0.2,1.2,0.5c0.3,0.4,0.4,0.8,0.4,1.2c0,0.4-0.1,0.8-0.3,1.2
						c-0.2,0.4-0.6,0.9-1.2,1.5c-0.4,0.4-0.6,0.7-0.7,0.8c-0.1,0.1-0.2,0.3-0.3,0.4H43.2z"/>
					<path fill="#FFFFFF" d="M44.3,70.7l0.6-0.1c0.1,0.8,0.5,1.3,1,1.3c0.3,0,0.6-0.1,0.8-0.4c0.2-0.3,0.3-0.6,0.3-1
						c0-0.4-0.1-0.7-0.3-0.9s-0.4-0.3-0.7-0.3c-0.1,0-0.3,0-0.5,0.1l0.1-0.7l0.1,0c0.3,0,0.6-0.1,0.8-0.3c0.2-0.2,0.3-0.5,0.3-0.8
						c0-0.3-0.1-0.5-0.3-0.7c-0.2-0.2-0.4-0.3-0.6-0.3c-0.3,0-0.5,0.1-0.6,0.3c-0.2,0.2-0.3,0.5-0.3,0.9l-0.6-0.1
						c0.1-0.6,0.3-1,0.6-1.2s0.6-0.4,1-0.4c0.4,0,0.8,0.2,1.1,0.5s0.4,0.7,0.4,1.2c0,0.3-0.1,0.6-0.2,0.8c-0.1,0.2-0.3,0.4-0.5,0.5
						c0.2,0.1,0.4,0.2,0.5,0.3c0.1,0.1,0.2,0.3,0.3,0.5c0.1,0.2,0.1,0.5,0.1,0.8c0,0.6-0.2,1.1-0.5,1.5c-0.3,0.4-0.8,0.6-1.3,0.6
						c-0.5,0-0.8-0.2-1.1-0.5S44.3,71.3,44.3,70.7z"/>
					<path fill="#FFFFFF" d="M50.9,72.4v-1.5h-2.3v-0.7l2.4-4.2h0.5v4.2h0.7v0.7h-0.7v1.5H50.9z M50.9,70.1v-2.9l-1.7,2.9H50.9z"/>
					<path fill="#FFFFFF" d="M56.8,67.5l-0.6,0.1c-0.1-0.3-0.2-0.6-0.3-0.7c-0.2-0.2-0.4-0.3-0.6-0.3c-0.4,0-0.7,0.2-0.9,0.7
						c-0.2,0.4-0.3,1-0.3,1.8c0.1-0.3,0.3-0.5,0.6-0.6c0.2-0.1,0.5-0.2,0.7-0.2c0.4,0,0.8,0.2,1.1,0.6c0.3,0.4,0.5,0.9,0.5,1.5
						c0,0.4-0.1,0.8-0.2,1.2c-0.2,0.3-0.4,0.6-0.6,0.8s-0.5,0.3-0.8,0.3c-0.5,0-1-0.2-1.3-0.7s-0.5-1.3-0.5-2.4
						c0-1.2,0.2-2.1,0.5-2.7c0.4-0.5,0.8-0.8,1.4-0.8c0.4,0,0.7,0.1,1,0.4C56.5,66.6,56.7,67,56.8,67.5z M54.1,70.3
						c0,0.5,0.1,0.8,0.3,1.1c0.2,0.3,0.5,0.4,0.8,0.4c0.3,0,0.5-0.1,0.7-0.4c0.2-0.3,0.3-0.6,0.3-1.1c0-0.5-0.1-0.8-0.3-1.1
						s-0.4-0.4-0.7-0.4c-0.3,0-0.5,0.1-0.7,0.4C54.2,69.5,54.1,69.9,54.1,70.3z"/>
					<path fill="#FFFFFF" d="M58,66.8V66h3.4v0.6c-0.5,0.7-1,1.5-1.3,2.6c-0.4,1.1-0.6,2.1-0.7,3.2h-0.7c0-0.5,0.1-1.2,0.3-1.9
						c0.2-0.7,0.4-1.4,0.7-2.1s0.6-1.2,0.9-1.7H58z"/>
					<path fill="#FFFFFF" d="M63.5,68.9c-0.3-0.1-0.5-0.3-0.6-0.5c-0.1-0.2-0.2-0.5-0.2-0.8c0-0.5,0.1-0.9,0.4-1.2
						c0.3-0.3,0.6-0.5,1.1-0.5c0.4,0,0.8,0.2,1.1,0.5c0.3,0.3,0.4,0.7,0.4,1.2c0,0.3-0.1,0.6-0.2,0.8c-0.1,0.2-0.3,0.4-0.6,0.5
						c0.3,0.1,0.6,0.3,0.7,0.6s0.3,0.6,0.3,1c0,0.6-0.2,1-0.5,1.4c-0.3,0.4-0.7,0.5-1.2,0.5c-0.5,0-0.9-0.2-1.2-0.5
						c-0.3-0.4-0.5-0.8-0.5-1.4c0-0.4,0.1-0.8,0.3-1.1C63,69.2,63.2,69,63.5,68.9z M63.2,70.5c0,0.4,0.1,0.7,0.3,1
						c0.2,0.2,0.5,0.4,0.8,0.4c0.3,0,0.6-0.1,0.8-0.4c0.2-0.2,0.3-0.5,0.3-0.9c0-0.4-0.1-0.7-0.3-1c-0.2-0.2-0.5-0.4-0.8-0.4
						c-0.3,0-0.5,0.1-0.8,0.4S63.2,70.2,63.2,70.5z M63.4,67.6c0,0.3,0.1,0.6,0.3,0.8c0.2,0.2,0.4,0.3,0.6,0.3
						c0.2,0,0.4-0.1,0.6-0.3c0.2-0.2,0.3-0.4,0.3-0.7c0-0.3-0.1-0.5-0.3-0.7s-0.4-0.3-0.6-0.3s-0.4,0.1-0.6,0.3
						C63.5,67.1,63.4,67.3,63.4,67.6z"/>
					<path fill="#FFFFFF" d="M67.2,70.9l0.6-0.1c0.1,0.7,0.4,1,0.9,1c0.2,0,0.4-0.1,0.6-0.2c0.2-0.1,0.3-0.4,0.5-0.8
						s0.2-0.8,0.2-1.3v-0.2c-0.1,0.3-0.3,0.5-0.5,0.6c-0.2,0.2-0.5,0.2-0.7,0.2c-0.4,0-0.8-0.2-1.1-0.6c-0.3-0.4-0.5-0.9-0.5-1.5
						c0-0.7,0.2-1.2,0.5-1.6c0.3-0.4,0.7-0.6,1.2-0.6c0.3,0,0.6,0.1,0.9,0.3s0.5,0.5,0.7,1s0.2,1,0.2,1.8c0,0.9-0.1,1.6-0.3,2.1
						s-0.4,0.8-0.7,1.1c-0.3,0.2-0.6,0.3-1,0.3c-0.4,0-0.7-0.1-1-0.4C67.4,71.8,67.2,71.4,67.2,70.9z M69.8,68.1
						c0-0.5-0.1-0.8-0.3-1.1c-0.2-0.3-0.4-0.4-0.7-0.4c-0.3,0-0.5,0.1-0.7,0.4c-0.2,0.3-0.3,0.7-0.3,1.1c0,0.4,0.1,0.8,0.3,1
						c0.2,0.3,0.5,0.4,0.7,0.4c0.3,0,0.5-0.1,0.7-0.4C69.7,68.9,69.8,68.5,69.8,68.1z"/>
					<path fill="#FFFFFF" d="M75.4,66h0.7v3.7c0,0.6-0.1,1.1-0.2,1.5c-0.1,0.4-0.3,0.7-0.7,0.9c-0.3,0.2-0.7,0.3-1.2,0.3
						c-0.7,0-1.2-0.2-1.6-0.6s-0.5-1.2-0.5-2.2V66h0.7v3.7c0,0.6,0,1,0.1,1.3s0.2,0.5,0.4,0.6c0.2,0.1,0.5,0.2,0.8,0.2
						c0.5,0,0.9-0.1,1.1-0.4c0.2-0.3,0.3-0.8,0.3-1.6V66z"/>
					<path fill="#FFFFFF" d="M77.3,70.6l0.6-0.1c0,0.5,0.1,0.8,0.2,1s0.3,0.3,0.6,0.3c0.2,0,0.3,0,0.4-0.1c0.1-0.1,0.2-0.2,0.3-0.3
						c0.1-0.2,0.1-0.5,0.1-0.9V66h0.7v4.4c0,0.8-0.1,1.3-0.4,1.7c-0.3,0.3-0.6,0.5-1.1,0.5c-0.5,0-0.8-0.1-1-0.4
						C77.4,71.7,77.3,71.2,77.3,70.6z"/>
					<path fill="#FFFFFF" d="M81.9,72.4V66h3.6v0.8h-2.9v2H85v0.8h-2.5v2.9H81.9z"/>
					<path fill="#FFFFFF" d="M86.5,69.2c0-1.1,0.1-1.9,0.4-2.5c0.3-0.6,0.7-0.8,1.3-0.8c0.5,0,0.9,0.2,1.2,0.7
						c0.4,0.5,0.5,1.4,0.5,2.6c0,1.1-0.1,1.9-0.4,2.5c-0.3,0.6-0.7,0.8-1.3,0.8c-0.5,0-0.9-0.2-1.2-0.7
						C86.7,71.3,86.5,70.4,86.5,69.2z M87.2,69.2c0,1,0.1,1.7,0.3,2.1s0.5,0.5,0.8,0.5c0.3,0,0.5-0.2,0.7-0.5
						c0.2-0.4,0.3-1.1,0.3-2.1c0-1-0.1-1.8-0.3-2.1s-0.5-0.5-0.8-0.5c-0.3,0-0.5,0.2-0.7,0.5S87.2,68.2,87.2,69.2z"/>
				</g>
			</g>
		</g>
	</g>
	<g>
		<circle fill="none" stroke="#808080" stroke-width="0.5" stroke-miterlimit="10" cx="926.2" cy="59.8" r="4.5"/>
		<line fill="none" stroke="#808080" stroke-width="0.5" stroke-miterlimit="10" x1="929.2" y1="56.8" x2="923.1" y2="62.9"/>
	</g>
	<g>
		<circle fill="none" stroke="#808080" stroke-width="0.5" stroke-miterlimit="10" cx="911.2" cy="59.8" r="4.5"/>
		<line fill="none" stroke="#808080" stroke-width="0.5" stroke-miterlimit="10" x1="914.2" y1="56.8" x2="908.1" y2="62.9"/>
	</g>
	<g>
		<circle fill="none" stroke="#808080" stroke-width="0.5" stroke-miterlimit="10" cx="956.2" cy="59.8" r="4.5"/>
		<line fill="none" stroke="#808080" stroke-width="0.5" stroke-miterlimit="10" x1="959.3" y1="56.8" x2="953.1" y2="62.9"/>
	</g>
	<g>
		<circle fill="none" stroke="#808080" stroke-width="0.5" stroke-miterlimit="10" cx="941.2" cy="59.8" r="4.5"/>
		<line fill="none" stroke="#808080" stroke-width="0.5" stroke-miterlimit="10" x1="944.3" y1="56.8" x2="938.1" y2="62.9"/>
	</g>
	<rect x="1012.2" y="53.3" opacity="0.3" fill="#FFFFFF" width="253.6" height="0.9"/>
	<rect x="1012.2" y="57.3" opacity="0.3" fill="#FFFFFF" width="253.6" height="0.9"/>
	<rect x="1012.2" y="61.4" opacity="0.3" fill="#FFFFFF" width="253.6" height="0.9"/>
	<rect x="1012.2" y="65.4" opacity="0.3" fill="#FFFFFF" width="253.6" height="0.9"/>
	<circle fill="#FFFFFF" cx="1026.2" cy="61.9" r="1.7"/>
	<circle fill="#FFFFFF" cx="1038.6" cy="61.9" r="1.7"/>
	<circle fill="#FFFFFF" cx="1050.9" cy="61.9" r="1.7"/>
	<circle fill="#FFFFFF" cx="1063.3" cy="61.9" r="1.7"/>
	<circle fill="#FFFFFF" cx="1107" cy="61.9" r="1.7"/>
	<circle fill="#FFFFFF" cx="1114.7" cy="61.9" r="1.7"/>
	<circle fill="#FFFFFF" cx="1152.3" cy="61.9" r="1.7"/>
	<circle fill="#FFFFFF" cx="1160" cy="61.9" r="1.7"/>
	<circle fill="#FFFFFF" cx="1168" cy="61.9" r="1.7"/>
	<circle fill="#FFFFFF" cx="1176" cy="61.9" r="1.7"/>
	<circle fill="#FFFFFF" cx="1228.7" cy="58.3" r="1.7"/>
	<circle fill="#FFFFFF" cx="1247.6" cy="65.9" r="1.7"/>
</g>
<g>
</g>
<g>
</g>
<g>
</g>
<g>
</g>
<g>
</g>
<g>
</g>
<g>
</g>
<g>
</g>
<g>
</g>
<g>
</g>
<g>
</g>
<g>
</g>
<g>
</g>
<g>
</g>
<g>
</g>
</svg>
