<svg xmlns="http://www.w3.org/2000/svg" viewBox="0 0 880.09 40.15"><defs><style>.cls-1{opacity:0.39;}.cls-2,.cls-4,.cls-7{fill:#fff;}.cls-3{opacity:0.6;}.cls-4{font-size:9px;font-family:ArialNarrow, Arial;letter-spacing:0.05em;}.cls-5,.cls-6{fill:none;stroke-miterlimit:10;}.cls-5{stroke:#fff;stroke-width:0.1px;}.cls-6{stroke:gray;stroke-width:0.5px;}.cls-7{opacity:0.3;}</style></defs><title>bottom</title><g id="content"><g class="cls-1"><rect class="cls-2" x="149.03" y="15.2" width="0.75" height="17.5"/><rect class="cls-2" x="153.05" y="20.95" width="0.75" height="11.75"/><rect class="cls-2" x="157.07" y="23.95" width="0.75" height="8.75"/><rect class="cls-2" x="161.09" y="17.7" width="0.75" height="15"/><rect class="cls-2" x="165.11" y="15.2" width="0.75" height="17.5"/><rect class="cls-2" x="169.14" y="6.45" width="0.75" height="26.25"/><rect class="cls-2" x="173.16" y="27.33" width="0.75" height="5.38"/><rect class="cls-2" x="177.18" y="20.95" width="0.75" height="11.75"/><rect class="cls-2" x="181.2" y="23.95" width="0.75" height="8.75"/><rect class="cls-2" x="185.22" y="20.95" width="0.75" height="11.75"/><rect class="cls-2" x="189.24" y="17.7" width="0.75" height="15"/><rect class="cls-2" x="193.26" y="15.2" width="0.75" height="17.5"/><rect class="cls-2" x="197.28" y="22.63" width="0.75" height="10.07"/><rect class="cls-2" x="201.3" y="20.95" width="0.75" height="11.75"/><rect class="cls-2" x="205.32" y="23.95" width="0.75" height="8.75"/><rect class="cls-2" x="209.34" y="20.95" width="0.75" height="11.75"/><rect class="cls-2" x="213.36" y="27.33" width="0.75" height="5.38"/><rect class="cls-2" x="217.38" y="15.2" width="0.75" height="17.5"/><rect class="cls-2" x="221.41" y="20.95" width="0.75" height="11.75"/><rect class="cls-2" x="225.43" y="23.95" width="0.75" height="8.75"/><rect class="cls-2" x="229.45" y="15.2" width="0.75" height="17.5"/><rect class="cls-2" x="233.47" y="6.45" width="0.75" height="26.25"/><rect class="cls-2" x="237.49" y="15.2" width="0.75" height="17.5"/><rect class="cls-2" x="241.51" y="28.01" width="0.75" height="4.69"/><rect class="cls-2" x="245.53" y="20.95" width="0.75" height="11.75"/><rect class="cls-2" x="249.55" y="15.2" width="0.75" height="17.5"/><rect class="cls-2" x="253.57" y="20.95" width="0.75" height="11.75"/><rect class="cls-2" x="257.59" y="23.33" width="0.75" height="9.38"/><rect class="cls-2" x="261.61" y="27.33" width="0.75" height="5.38"/><rect class="cls-2" x="265.63" y="23.33" width="0.75" height="9.38"/><rect class="cls-2" x="269.65" y="15.2" width="0.75" height="17.5"/></g><g class="cls-3"><text class="cls-4" transform="translate(75.51 32.92)">9312346789UJF0</text></g><polyline class="cls-5" points="880.03 13.48 880.03 40.1 40.03 40.1 0.04 0.1"/><polygon class="cls-2" points="0.04 40.1 20.04 40.1 0.04 20.1 0.04 40.1"/><polyline class="cls-5" points="0.04 0.05 442.46 0.05 455.89 13.48 880.03 13.48"/><circle class="cls-6" cx="534.41" cy="26.83" r="4.49"/><line class="cls-6" x1="537.49" y1="23.75" x2="531.34" y2="29.9"/><circle class="cls-6" cx="519.4" cy="26.83" r="4.49"/><line class="cls-6" x1="522.48" y1="23.75" x2="516.33" y2="29.9"/><circle class="cls-6" cx="564.43" cy="26.83" r="4.49"/><line class="cls-6" x1="567.51" y1="23.75" x2="561.35" y2="29.9"/><circle class="cls-6" cx="549.42" cy="26.83" r="4.49"/><line class="cls-6" x1="552.5" y1="23.75" x2="546.34" y2="29.9"/><polygon class="cls-6" points="371.48 11.03 311.8 11.03 311.8 31.7 397.44 31.7 371.48 11.03"/><polygon class="cls-6" points="393.63 11.03 380.8 11.03 406.76 31.7 419.6 31.7 393.63 11.03"/><polygon class="cls-6" points="413.03 11.03 400.2 11.03 426.16 31.7 439 31.7 413.03 11.03"/><polygon class="cls-6" points="432.43 11.03 419.6 11.03 445.56 31.7 458.39 31.7 432.43 11.03"/><rect class="cls-7" x="620.41" y="20.29" width="253.62" height="0.93"/><rect class="cls-7" x="620.41" y="24.34" width="253.62" height="0.93"/><rect class="cls-7" x="620.41" y="28.39" width="253.62" height="0.93"/><rect class="cls-7" x="620.41" y="32.43" width="253.62" height="0.93"/><circle class="cls-2" cx="634.44" cy="28.85" r="1.65"/><circle class="cls-2" cx="646.8" cy="28.85" r="1.65"/><circle class="cls-2" cx="659.16" cy="28.85" r="1.65"/><circle class="cls-2" cx="671.53" cy="28.85" r="1.65"/><circle class="cls-2" cx="715.23" cy="28.85" r="1.65"/><circle class="cls-2" cx="722.9" cy="28.85" r="1.65"/><circle class="cls-2" cx="760.56" cy="28.85" r="1.65"/><circle class="cls-2" cx="768.23" cy="28.85" r="1.65"/><circle class="cls-2" cx="776.24" cy="28.85" r="1.65"/><circle class="cls-2" cx="784.26" cy="28.85" r="1.65"/><circle class="cls-2" cx="836.91" cy="25.27" r="1.65"/><circle class="cls-2" cx="855.81" cy="32.92" r="1.65"/></g></svg>