<svg id="content" xmlns="http://www.w3.org/2000/svg" xmlns:xlink="http://www.w3.org/1999/xlink" viewBox="0 0 320 60"><defs><style>.cls-1{fill:none;}.cls-2{fill:#f49c0f;}.cls-3,.cls-4{fill:#fff;}.cls-3{opacity:0.2;}.cls-5{clip-path:url(#clip-path);}</style><clipPath id="clip-path"><circle class="cls-1" cx="160" cy="30.62" r="5.67"/></clipPath></defs><title>bottom-panel</title><rect y="20" width="320" height="40"/><polygon points="253.28 0 66.72 0 36.44 20 66.72 20 253.28 20 283.56 20 253.28 0"/><polygon points="66.72 0 36.44 20 66.72 20 66.72 0"/><polygon class="cls-2" points="75.19 0 67.12 0 51.58 10.27 36.85 20 44.92 20 75.19 0"/><rect class="cls-2" y="18" width="44.92" height="2"/><polygon class="cls-2" points="282.17 20 274.11 20 258.56 9.73 243.83 0 251.9 0 282.17 20"/><rect class="cls-2" x="275.08" y="18" width="44.92" height="2" transform="translate(595.08 38) rotate(180)"/><rect class="cls-2" x="67.71" width="184.58" height="2"/><circle class="cls-3" cx="160" cy="29.64" r="14"/><circle class="cls-2" cx="160" cy="30.62" r="5.67"/><path class="cls-4" d="M148.8,33.5c-1.17,0-1.36-.17-1.39-.33v0c0-.42,1.62-1,4.81-1.87l.05.2c-3.68.95-4.66,1.5-4.66,1.67,0,0,.06.16,1.19.16a55.48,55.48,0,0,0,7.16-.75l0,.2A55.75,55.75,0,0,1,148.8,33.5Zm10.58-1.32,0-.2.84-.15c7.85-1.46,12.2-2.88,12.2-3.3l.2,0v0c0,.89-7.4,2.58-12.37,3.51Zm-3.77-1.51,0-.2c1.35-.29,2.76-.58,4.21-.85,3.52-.66,6.93-1.15,9.34-1.36l0,.21c-2.4.21-5.8.7-9.32,1.36C158.37,30.09,157,30.38,155.61,30.67Z"/><g class="cls-5"><path class="cls-2" d="M153.85,32c.13,0,12.81-2.38,12.81-2.38l-1.61-7.7-12.49,2.22Z"/></g></svg>