<svg id="content" xmlns="http://www.w3.org/2000/svg" viewBox="0 0 50 34"><title>diamond</title><polygon points="25 33.78 24.73 33.54 25 34 25.27 33.54 25 33.78" style="fill:none"/><polygon points="19.12 0 10.52 0 0 11.78 11.71 11.78 19.12 0" style="fill:#fff"/><polygon points="25 11.78 25 0 19.12 0 11.71 11.78 25 11.78" style="fill:#f49c0f"/><polygon points="25 11.78 11.71 11.78 24.73 33.54 25 33.78 25 11.78" style="fill:#a84d30"/><polygon points="0 11.78 24.73 33.54 11.71 11.78 0 11.78" style="fill:#f49c0f"/><polygon points="25 11.78 25 33.78 25.27 33.54 38.28 11.78 25 11.78" style="fill:#f49c0f"/><polygon points="25.27 33.54 50 11.78 38.28 11.78 25.27 33.54" style="fill:#fff"/><polygon points="50 11.78 39.48 0 30.88 0 38.28 11.78 50 11.78" style="fill:#a84d30"/><polygon points="38.28 11.78 30.88 0 25 0 25 11.78 38.28 11.78" style="fill:#fff"/></svg>