<?xml version="1.0" encoding="utf-8"?>
<!-- Generator: Adobe Illustrator 21.0.2, SVG Export Plug-In . SVG Version: 6.00 Build 0)  -->
<svg version="1.1" id="content" xmlns="http://www.w3.org/2000/svg" xmlns:xlink="http://www.w3.org/1999/xlink" x="0px" y="0px"
	 viewBox="0 0 280 374.4" style="enable-background:new 0 0 280 374.4;" xml:space="preserve">
<style type="text/css">
	.st0{opacity:0.5;}
	.st1{fill:none;stroke:#FFFFFF;stroke-width:0.25;stroke-miterlimit:10;}
</style>
<title>grid</title>
<g class="st0">
	<line class="st1" x1="0" y1="0.7" x2="280" y2="0.7"/>
	<line class="st1" x1="0" y1="19.5" x2="280" y2="19.5"/>
	<line class="st1" x1="0" y1="40.4" x2="280" y2="40.4"/>
	<line class="st1" x1="0" y1="61.2" x2="280" y2="61.2"/>
	<line class="st1" x1="0" y1="82.1" x2="280" y2="82.1"/>
	<line class="st1" x1="0" y1="102.9" x2="280" y2="102.9"/>
	<line class="st1" x1="0" y1="123.7" x2="280" y2="123.7"/>
	<line class="st1" x1="0" y1="144.6" x2="280" y2="144.6"/>
	<line class="st1" x1="0" y1="165.4" x2="280" y2="165.4"/>
	<line class="st1" x1="0" y1="186.3" x2="280" y2="186.3"/>
	<line class="st1" x1="0" y1="207.1" x2="280" y2="207.1"/>
	<line class="st1" x1="0" y1="228" x2="280" y2="228"/>
	<line class="st1" x1="0" y1="269.7" x2="280" y2="269.7"/>
	<line class="st1" x1="0" y1="290.5" x2="280" y2="290.5"/>
	<line class="st1" x1="0" y1="311.4" x2="280" y2="311.4"/>
	<line class="st1" x1="0" y1="332.2" x2="280" y2="332.2"/>
	<line class="st1" x1="0" y1="353.1" x2="280" y2="353.1"/>
	<line class="st1" x1="0" y1="373.9" x2="280" y2="373.9"/>
	<line class="st1" x1="0" y1="248.8" x2="280" y2="248.8"/>
	<line class="st1" x1="280" y1="0" x2="280" y2="374.4"/>
	<line class="st1" x1="200" y1="0" x2="200" y2="373.9"/>
	<line class="st1" x1="220" y1="0" x2="220" y2="373.9"/>
	<line class="st1" x1="240" y1="0" x2="240" y2="373.9"/>
	<line class="st1" x1="260" y1="0" x2="260" y2="373.9"/>
	<line class="st1" x1="180" y1="0" x2="180" y2="373.9"/>
	<line class="st1" x1="160" y1="0" x2="160" y2="373.9"/>
	<line class="st1" x1="140" y1="0" x2="140" y2="373.9"/>
	<line class="st1" x1="120" y1="0" x2="120" y2="373.9"/>
	<line class="st1" x1="100" y1="0" x2="100" y2="373.9"/>
	<line class="st1" x1="80" y1="0" x2="80" y2="373.9"/>
	<line class="st1" x1="60" y1="0" x2="60" y2="373.9"/>
	<line class="st1" x1="40" y1="0" x2="40" y2="373.9"/>
	<line class="st1" x1="20" y1="0" x2="20" y2="373.9"/>
	<line class="st1" x1="0" y1="0" x2="0" y2="373.9"/>
</g>
</svg>
