<svg id="content" xmlns="http://www.w3.org/2000/svg" viewBox="0 0 8 338.89"><defs><style>.cls-1{fill:none;stroke:#fff;stroke-miterlimit:10;stroke-width:0.5px;}</style></defs><title>left-deco</title><line class="cls-1" x2="8"/><line class="cls-1" y1="6.16" x2="4" y2="6.16"/><line class="cls-1" y1="12.32" x2="4" y2="12.32"/><line class="cls-1" y1="18.48" x2="4" y2="18.48"/><line class="cls-1" y1="24.65" x2="4" y2="24.65"/><line class="cls-1" y1="30.81" x2="8" y2="30.81"/><line class="cls-1" y1="36.97" x2="4" y2="36.97"/><line class="cls-1" y1="43.13" x2="4" y2="43.13"/><line class="cls-1" y1="49.29" x2="4" y2="49.29"/><line class="cls-1" y1="55.45" x2="4" y2="55.45"/><line class="cls-1" y1="61.62" x2="8" y2="61.62"/><line class="cls-1" y1="67.78" x2="4" y2="67.78"/><line class="cls-1" y1="73.94" x2="4" y2="73.94"/><line class="cls-1" y1="80.1" x2="4" y2="80.1"/><line class="cls-1" y1="86.26" x2="4" y2="86.26"/><line class="cls-1" y1="92.42" x2="8" y2="92.42"/><line class="cls-1" y1="98.59" x2="4" y2="98.59"/><line class="cls-1" y1="104.75" x2="4" y2="104.75"/><line class="cls-1" y1="110.91" x2="4" y2="110.91"/><line class="cls-1" y1="117.07" x2="4" y2="117.07"/><line class="cls-1" y1="123.23" x2="8" y2="123.23"/><line class="cls-1" y1="129.39" x2="4" y2="129.39"/><line class="cls-1" y1="135.56" x2="4" y2="135.56"/><line class="cls-1" y1="141.72" x2="4" y2="141.72"/><line class="cls-1" y1="147.88" x2="4" y2="147.88"/><line class="cls-1" y1="154.04" x2="8" y2="154.04"/><line class="cls-1" y1="160.2" x2="4" y2="160.2"/><line class="cls-1" y1="166.36" x2="4" y2="166.36"/><line class="cls-1" y1="172.53" x2="4" y2="172.53"/><line class="cls-1" y1="178.69" x2="4" y2="178.69"/><line class="cls-1" y1="184.85" x2="8" y2="184.85"/><line class="cls-1" y1="191.01" x2="4" y2="191.01"/><line class="cls-1" y1="197.17" x2="4" y2="197.17"/><line class="cls-1" y1="203.33" x2="4" y2="203.33"/><line class="cls-1" y1="209.5" x2="4" y2="209.5"/><line class="cls-1" y1="215.66" x2="8" y2="215.66"/><line class="cls-1" y1="221.82" x2="4" y2="221.82"/><line class="cls-1" y1="227.98" x2="4" y2="227.98"/><line class="cls-1" y1="234.14" x2="4" y2="234.14"/><line class="cls-1" y1="240.3" x2="4" y2="240.3"/><line class="cls-1" y1="246.46" x2="8" y2="246.46"/><line class="cls-1" y1="252.63" x2="4" y2="252.63"/><line class="cls-1" y1="258.79" x2="4" y2="258.79"/><line class="cls-1" y1="264.95" x2="4" y2="264.95"/><line class="cls-1" y1="271.11" x2="4" y2="271.11"/><line class="cls-1" y1="277.27" x2="8" y2="277.27"/><line class="cls-1" y1="283.43" x2="4" y2="283.43"/><line class="cls-1" y1="289.6" x2="4" y2="289.6"/><line class="cls-1" y1="295.76" x2="4" y2="295.76"/><line class="cls-1" y1="301.92" x2="4" y2="301.92"/><line class="cls-1" y1="308.08" x2="8" y2="308.08"/><line class="cls-1" y1="314.24" x2="4" y2="314.24"/><line class="cls-1" y1="320.4" x2="4" y2="320.4"/><line class="cls-1" y1="326.57" x2="4" y2="326.57"/><line class="cls-1" y1="332.73" x2="4" y2="332.73"/><line class="cls-1" y1="338.89" x2="8" y2="338.89"/></svg>