<svg xmlns="http://www.w3.org/2000/svg" viewBox="0 0 1280 75"><defs><style>.cls-1{opacity:0.1;}.cls-2{fill:none;stroke:#fff;stroke-miterlimit:10;stroke-width:0.25px;}.cls-3{fill:#f49c0f;}</style></defs><title>up-panel</title><g id="content"><g class="cls-1"><line class="cls-2" x1="250.98" y1="-66.36" x2="1116.35" y2="1183.07"/><line class="cls-2" x1="772.78" y1="-70.78" x2="772.78" y2="1078.76"/></g><rect width="1280" height="45" transform="translate(1280 45) rotate(180)"/><rect class="cls-3" x="812.62" y="45" width="467.38" height="3" transform="translate(2092.62 93) rotate(180)"/><rect class="cls-3" y="45" width="467.38" height="3"/><polygon points="503.84 75 774.69 75 820.1 45 774.69 45 503.84 45 458.43 45 503.84 75"/><polygon class="cls-3" points="766.48 75 778.58 75 801.9 59.59 823.99 45 811.89 45 766.48 75"/><polygon class="cls-3" points="456.01 45 468.11 45 491.43 60.41 513.52 75 501.42 75 456.01 45"/><rect class="cls-3" x="500.83" y="72" width="276.87" height="3" transform="translate(1278.53 147) rotate(180)"/></g></svg>