<svg xmlns="http://www.w3.org/2000/svg" viewBox="0 0 320 50"><title>upper-panel</title><rect width="320" height="30" transform="translate(320 30) rotate(180)"/><polygon points="66.72 50 253.28 50 283.56 30 253.28 30 66.72 30 36.44 30 66.72 50"/><polygon points="253.28 50 283.56 30 253.28 30 253.28 50"/><polygon points="244.81 50 252.88 50 268.42 39.73 283.15 30 275.08 30 244.81 50" style="fill:#f49c0f"/><rect x="275.08" y="30" width="44.92" height="2" transform="translate(595.08 62) rotate(180)" style="fill:#f49c0f"/><polygon points="37.83 30 45.9 30 61.44 40.27 76.17 50 68.1 50 37.83 30" style="fill:#f49c0f"/><rect y="30" width="44.92" height="2" style="fill:#f49c0f"/><rect x="67.71" y="48" width="184.58" height="2" transform="translate(320 98) rotate(180)" style="fill:#f49c0f"/></svg>